<mxfile host="app.diagrams.net" agent="Mozilla/5.0 (Macintosh; Intel Mac OS X 10_15_7) AppleWebKit/537.36 (KHTML, like Gecko) Chrome/129.0.0.0 Safari/537.36" version="24.8.3">
  <diagram id="C5RBs43oDa-KdzZeNtuy" name="Page-1">
    <mxGraphModel dx="1166" dy="711" grid="1" gridSize="10" guides="1" tooltips="1" connect="1" arrows="1" fold="1" page="1" pageScale="1" pageWidth="827" pageHeight="1169" math="0" shadow="0">
      <root>
        <mxCell id="WIyWlLk6GJQsqaUBKTNV-0" />
        <mxCell id="WIyWlLk6GJQsqaUBKTNV-1" parent="WIyWlLk6GJQsqaUBKTNV-0" />
        <mxCell id="3YFem3FCgl1LY9Mo1V9L-4" value="" style="edgeStyle=orthogonalEdgeStyle;rounded=0;orthogonalLoop=1;jettySize=auto;html=1;" edge="1" parent="WIyWlLk6GJQsqaUBKTNV-1" source="3YFem3FCgl1LY9Mo1V9L-0" target="3YFem3FCgl1LY9Mo1V9L-3">
          <mxGeometry relative="1" as="geometry" />
        </mxCell>
        <mxCell id="3YFem3FCgl1LY9Mo1V9L-0" value="내가 공격한다" style="rounded=1;whiteSpace=wrap;html=1;" vertex="1" parent="WIyWlLk6GJQsqaUBKTNV-1">
          <mxGeometry x="354" y="220" width="120" height="60" as="geometry" />
        </mxCell>
        <mxCell id="3YFem3FCgl1LY9Mo1V9L-6" value="에" style="edgeStyle=orthogonalEdgeStyle;rounded=0;orthogonalLoop=1;jettySize=auto;html=1;" edge="1" parent="WIyWlLk6GJQsqaUBKTNV-1" source="3YFem3FCgl1LY9Mo1V9L-3" target="3YFem3FCgl1LY9Mo1V9L-5">
          <mxGeometry x="-0.5797" relative="1" as="geometry">
            <mxPoint as="offset" />
          </mxGeometry>
        </mxCell>
        <mxCell id="3YFem3FCgl1LY9Mo1V9L-13" value="아니오" style="edgeStyle=orthogonalEdgeStyle;rounded=0;orthogonalLoop=1;jettySize=auto;html=1;" edge="1" parent="WIyWlLk6GJQsqaUBKTNV-1" source="3YFem3FCgl1LY9Mo1V9L-3" target="3YFem3FCgl1LY9Mo1V9L-12">
          <mxGeometry x="-0.6334" relative="1" as="geometry">
            <mxPoint as="offset" />
          </mxGeometry>
        </mxCell>
        <mxCell id="3YFem3FCgl1LY9Mo1V9L-3" value="스킬을 사용했는가?" style="rhombus;whiteSpace=wrap;html=1;rounded=1;" vertex="1" parent="WIyWlLk6GJQsqaUBKTNV-1">
          <mxGeometry x="221" y="390" width="126" height="80" as="geometry" />
        </mxCell>
        <mxCell id="3YFem3FCgl1LY9Mo1V9L-11" style="edgeStyle=orthogonalEdgeStyle;rounded=0;orthogonalLoop=1;jettySize=auto;html=1;entryX=0.5;entryY=0;entryDx=0;entryDy=0;" edge="1" parent="WIyWlLk6GJQsqaUBKTNV-1" source="3YFem3FCgl1LY9Mo1V9L-5" target="3YFem3FCgl1LY9Mo1V9L-16">
          <mxGeometry relative="1" as="geometry">
            <mxPoint x="414" y="680.0000000000002" as="targetPoint" />
          </mxGeometry>
        </mxCell>
        <mxCell id="3YFem3FCgl1LY9Mo1V9L-5" value="적에게 공격한다" style="whiteSpace=wrap;html=1;rounded=1;" vertex="1" parent="WIyWlLk6GJQsqaUBKTNV-1">
          <mxGeometry x="50" y="562" width="120" height="60" as="geometry" />
        </mxCell>
        <mxCell id="3YFem3FCgl1LY9Mo1V9L-10" value="" style="edgeStyle=orthogonalEdgeStyle;rounded=0;orthogonalLoop=1;jettySize=auto;html=1;exitX=0;exitY=0.5;exitDx=0;exitDy=0;entryX=0.5;entryY=0;entryDx=0;entryDy=0;" edge="1" parent="WIyWlLk6GJQsqaUBKTNV-1" source="3YFem3FCgl1LY9Mo1V9L-12" target="3YFem3FCgl1LY9Mo1V9L-16">
          <mxGeometry relative="1" as="geometry">
            <mxPoint x="410" y="610" as="sourcePoint" />
            <mxPoint x="414.0000000000002" y="680.0000000000002" as="targetPoint" />
          </mxGeometry>
        </mxCell>
        <mxCell id="3YFem3FCgl1LY9Mo1V9L-12" value="아이템을 사용한다" style="whiteSpace=wrap;html=1;rounded=1;" vertex="1" parent="WIyWlLk6GJQsqaUBKTNV-1">
          <mxGeometry x="390" y="562" width="120" height="60" as="geometry" />
        </mxCell>
        <mxCell id="3YFem3FCgl1LY9Mo1V9L-18" value="아니오" style="edgeStyle=orthogonalEdgeStyle;rounded=0;orthogonalLoop=1;jettySize=auto;html=1;" edge="1" parent="WIyWlLk6GJQsqaUBKTNV-1" source="3YFem3FCgl1LY9Mo1V9L-16" target="3YFem3FCgl1LY9Mo1V9L-17">
          <mxGeometry relative="1" as="geometry" />
        </mxCell>
        <mxCell id="3YFem3FCgl1LY9Mo1V9L-20" value="" style="edgeStyle=orthogonalEdgeStyle;rounded=0;orthogonalLoop=1;jettySize=auto;html=1;" edge="1" parent="WIyWlLk6GJQsqaUBKTNV-1" source="3YFem3FCgl1LY9Mo1V9L-16" target="3YFem3FCgl1LY9Mo1V9L-19">
          <mxGeometry relative="1" as="geometry" />
        </mxCell>
        <mxCell id="3YFem3FCgl1LY9Mo1V9L-29" value="예" style="edgeLabel;html=1;align=center;verticalAlign=middle;resizable=0;points=[];" vertex="1" connectable="0" parent="3YFem3FCgl1LY9Mo1V9L-20">
          <mxGeometry x="-0.7272" y="1" relative="1" as="geometry">
            <mxPoint as="offset" />
          </mxGeometry>
        </mxCell>
        <mxCell id="3YFem3FCgl1LY9Mo1V9L-16" value="적이 사망했는가?" style="rhombus;whiteSpace=wrap;html=1;" vertex="1" parent="WIyWlLk6GJQsqaUBKTNV-1">
          <mxGeometry x="180" y="700" width="112" height="80" as="geometry" />
        </mxCell>
        <mxCell id="3YFem3FCgl1LY9Mo1V9L-24" value="" style="edgeStyle=orthogonalEdgeStyle;rounded=0;orthogonalLoop=1;jettySize=auto;html=1;" edge="1" parent="WIyWlLk6GJQsqaUBKTNV-1" source="3YFem3FCgl1LY9Mo1V9L-17" target="3YFem3FCgl1LY9Mo1V9L-23">
          <mxGeometry relative="1" as="geometry" />
        </mxCell>
        <mxCell id="3YFem3FCgl1LY9Mo1V9L-17" value="적이 공격한다" style="whiteSpace=wrap;html=1;" vertex="1" parent="WIyWlLk6GJQsqaUBKTNV-1">
          <mxGeometry x="354" y="710" width="120" height="60" as="geometry" />
        </mxCell>
        <mxCell id="3YFem3FCgl1LY9Mo1V9L-19" value="전투 종료" style="whiteSpace=wrap;html=1;" vertex="1" parent="WIyWlLk6GJQsqaUBKTNV-1">
          <mxGeometry x="176" y="990" width="120" height="60" as="geometry" />
        </mxCell>
        <mxCell id="3YFem3FCgl1LY9Mo1V9L-22" style="edgeStyle=orthogonalEdgeStyle;rounded=0;orthogonalLoop=1;jettySize=auto;html=1;exitX=0.5;exitY=1;exitDx=0;exitDy=0;entryX=0.5;entryY=0;entryDx=0;entryDy=0;" edge="1" parent="WIyWlLk6GJQsqaUBKTNV-1" source="3YFem3FCgl1LY9Mo1V9L-21" target="3YFem3FCgl1LY9Mo1V9L-0">
          <mxGeometry relative="1" as="geometry" />
        </mxCell>
        <mxCell id="3YFem3FCgl1LY9Mo1V9L-21" value="전투 시작" style="rounded=1;whiteSpace=wrap;html=1;" vertex="1" parent="WIyWlLk6GJQsqaUBKTNV-1">
          <mxGeometry x="354" y="60" width="120" height="60" as="geometry" />
        </mxCell>
        <mxCell id="3YFem3FCgl1LY9Mo1V9L-26" value="" style="edgeStyle=orthogonalEdgeStyle;rounded=0;orthogonalLoop=1;jettySize=auto;html=1;entryX=0.5;entryY=0;entryDx=0;entryDy=0;" edge="1" parent="WIyWlLk6GJQsqaUBKTNV-1" source="3YFem3FCgl1LY9Mo1V9L-23" target="3YFem3FCgl1LY9Mo1V9L-19">
          <mxGeometry relative="1" as="geometry" />
        </mxCell>
        <mxCell id="3YFem3FCgl1LY9Mo1V9L-31" value="예" style="edgeLabel;html=1;align=center;verticalAlign=middle;resizable=0;points=[];" vertex="1" connectable="0" parent="3YFem3FCgl1LY9Mo1V9L-26">
          <mxGeometry x="-0.7923" y="-3" relative="1" as="geometry">
            <mxPoint x="15" y="3" as="offset" />
          </mxGeometry>
        </mxCell>
        <mxCell id="3YFem3FCgl1LY9Mo1V9L-27" value="아니오" style="edgeStyle=orthogonalEdgeStyle;rounded=0;orthogonalLoop=1;jettySize=auto;html=1;exitX=1;exitY=0.5;exitDx=0;exitDy=0;entryX=1;entryY=0.5;entryDx=0;entryDy=0;" edge="1" parent="WIyWlLk6GJQsqaUBKTNV-1" source="3YFem3FCgl1LY9Mo1V9L-23" target="3YFem3FCgl1LY9Mo1V9L-0">
          <mxGeometry x="-0.8529" y="1" relative="1" as="geometry">
            <mxPoint as="offset" />
          </mxGeometry>
        </mxCell>
        <mxCell id="3YFem3FCgl1LY9Mo1V9L-23" value="내가 사망했는가?" style="rhombus;whiteSpace=wrap;html=1;" vertex="1" parent="WIyWlLk6GJQsqaUBKTNV-1">
          <mxGeometry x="520" y="800" width="141" height="80" as="geometry" />
        </mxCell>
      </root>
    </mxGraphModel>
  </diagram>
</mxfile>
